<?xml version="1.0" encoding="UTF-8" standalone="no"?>
<svg
   xmlns:dc="http://purl.org/dc/elements/1.1/"
   xmlns:cc="http://creativecommons.org/ns#"
   xmlns:rdf="http://www.w3.org/1999/02/22-rdf-syntax-ns#"
   xmlns:svg="http://www.w3.org/2000/svg"
   xmlns="http://www.w3.org/2000/svg"
   xmlns:sodipodi="http://sodipodi.sourceforge.net/DTD/sodipodi-0.dtd"
   xmlns:inkscape="http://www.inkscape.org/namespaces/inkscape"
   id="svg8"
   version="1.1"
   viewBox="0 0 104.82558 17.246599"
   height="17.246599mm"
   width="104.82558mm"
   sodipodi:docname="logoblack.svg"
   inkscape:version="0.92.5 (2060ec1f9f, 2020-04-08)">
  <sodipodi:namedview
     pagecolor="#ffffff"
     bordercolor="#666666"
     borderopacity="1"
     objecttolerance="10"
     gridtolerance="10"
     guidetolerance="10"
     inkscape:pageopacity="0"
     inkscape:pageshadow="2"
     inkscape:window-width="1312"
     inkscape:window-height="704"
     id="namedview13"
     showgrid="false"
     inkscape:zoom="0.88593598"
     inkscape:cx="198.09558"
     inkscape:cy="32.591998"
     inkscape:window-x="54"
     inkscape:window-y="27"
     inkscape:window-maximized="1"
     inkscape:current-layer="flowRoot10" />
  <defs
     id="defs2" />
  <metadata
     id="metadata5">
    <rdf:RDF>
      <cc:Work
         rdf:about="">
        <dc:format>image/svg+xml</dc:format>
        <dc:type
           rdf:resource="http://purl.org/dc/dcmitype/StillImage" />
        <dc:title></dc:title>
      </cc:Work>
    </rdf:RDF>
  </metadata>
  <g
     transform="translate(-11.517159,-55.060658)"
     id="layer1">
    <g
       aria-label="Triveneco"
       transform="scale(0.26458333)"
       style="font-style:normal;font-weight:normal;font-size:40px;line-height:2;font-family:sans-serif;letter-spacing:0px;word-spacing:0px;fill:#000000;fill-opacity:1;stroke:none"
       id="flowRoot10">
      <path
         d="m 58.649422,221.35128 h -15.12 v -12.576 h 44.544 v 12.576 h -15.072 v 50.784 h -14.352 z"
         style="font-style:normal;font-variant:normal;font-weight:bold;font-stretch:normal;font-size:96px;line-height:2;font-family:'League Spartan';-inkscape-font-specification:'League Spartan Bold'"
         id="path3718" />
      <path
         d="M 106.12112,272.13528 H 91.529117 v -39.408 h 14.592003 v 6.096 h -0.24 q 0.384,-1.104 1.872,-2.784 1.488,-1.728 4.176,-3.072 2.688,-1.392 6.576,-1.392 2.736,0 5.04,0.864 2.304,0.816 3.36,1.584 l -5.664,11.856 q -0.672,-0.816 -2.4,-1.68 -1.68,-0.912 -4.224,-0.912 -2.928,0 -4.848,1.488 -1.872,1.488 -2.784,3.6 -0.864,2.112 -0.864,3.984 z"
         style="font-style:normal;font-variant:normal;font-weight:bold;font-stretch:normal;font-size:96px;line-height:2;font-family:'League Spartan';-inkscape-font-specification:'League Spartan Bold'"
         id="path3720" />
      <path
         d="m 131.32108,272.13528 v -39.408 h 14.592 v 39.408 z m 7.488,-47.52 q -3.456,0 -5.856,-2.4 -2.4,-2.448 -2.4,-5.808 0,-3.36 2.4,-5.808 2.448,-2.496 5.856,-2.496 2.256,0 4.128,1.152 1.872,1.104 3.024,2.976 1.152,1.872 1.152,4.176 0,3.36 -2.448,5.808 -2.448,2.4 -5.856,2.4 z"
         style="font-style:normal;font-variant:normal;font-weight:bold;font-stretch:normal;font-size:96px;line-height:2;font-family:'League Spartan';-inkscape-font-specification:'League Spartan Bold'"
         id="path3722" />
      <path
         d="m 152.441,232.72728 h 15.6 l 9.504,26.16 9.552,-26.16 h 15.504 l -16.512,39.408 h -17.088 z"
         style="font-style:normal;font-variant:normal;font-weight:bold;font-stretch:normal;font-family:'League Spartan';-inkscape-font-specification:'League Spartan Bold';fill:#ffae4b;fill-opacity:1"
         id="path3724" />
      <path
         d="m 220.1209,255.52728 q 0.144,2.112 1.344,3.744 1.2,1.632 3.312,2.592 2.16,0.912 5.088,0.912 2.784,0 4.992,-0.576 2.256,-0.576 3.888,-1.44 1.68,-0.864 2.592,-1.776 l 5.664,9.024 q -1.2,1.296 -3.408,2.544 -2.16,1.2 -5.712,1.968 -3.552,0.768 -8.976,0.768 -6.528,0 -11.616,-2.448 -5.088,-2.448 -8.016,-7.2 -2.928,-4.752 -2.928,-11.616 0,-5.76 2.496,-10.368 2.544,-4.656 7.344,-7.344 4.8,-2.736 11.568,-2.736 6.432,0 11.136,2.352 4.752,2.352 7.296,7.008 2.592,4.608 2.592,11.52 0,0.384 -0.048,1.536 0,1.152 -0.096,1.536 z m 14.928,-7.632 q -0.048,-1.536 -0.816,-3.024 -0.768,-1.536 -2.304,-2.496 -1.536,-1.008 -3.936,-1.008 -2.4,0 -4.08,0.96 -1.632,0.912 -2.496,2.4 -0.864,1.488 -0.96,3.168 z"
         style="font-style:normal;font-variant:normal;font-weight:bold;font-stretch:normal;font-family:'League Spartan';-inkscape-font-specification:'League Spartan Bold';fill:#233dff;fill-opacity:1"
         id="path3726" />
      <path
         d="m 283.43282,231.57528 q 4.128,0 8.064,1.68 3.936,1.68 6.48,5.328 2.544,3.6 2.544,9.504 v 24.048 h -14.64 v -21.648 q 0,-4.224 -2.016,-6.336 -2.016,-2.16 -5.28,-2.16 -2.16,0 -4.08,1.152 -1.872,1.104 -3.072,3.168 -1.152,2.016 -1.152,4.656 v 21.168 h -14.592 v -39.408 h 14.592 v 5.808 q 0.576,-1.584 2.4,-3.168 1.872,-1.632 4.656,-2.688 2.832,-1.104 6.096,-1.104 z"
         style="font-style:normal;font-variant:normal;font-weight:bold;font-stretch:normal;font-family:'League Spartan';-inkscape-font-specification:'League Spartan Bold';fill:#d32f23;fill-opacity:1"
         id="path3728" />
      <path
         d="m 320.6328,255.52728 q 0.144,2.112 1.344,3.744 1.2,1.632 3.312,2.592 2.16,0.912 5.088,0.912 2.784,0 4.992,-0.576 2.256,-0.576 3.888,-1.44 1.68,-0.864 2.592,-1.776 l 5.664,9.024 q -1.2,1.296 -3.408,2.544 -2.16,1.2 -5.712,1.968 -3.552,0.768 -8.976,0.768 -6.528,0 -11.616,-2.448 -5.088,-2.448 -8.016,-7.2 -2.928,-4.752 -2.928,-11.616 0,-5.76 2.496,-10.368 2.544,-4.656 7.344,-7.344 4.8,-2.736 11.568,-2.736 6.432,0 11.136,2.352 4.752,2.352 7.296,7.008 2.592,4.608 2.592,11.52 0,0.384 -0.048,1.536 0,1.152 -0.096,1.536 z m 14.928,-7.632 q -0.048,-1.536 -0.816,-3.024 -0.768,-1.536 -2.304,-2.496 -1.536,-1.008 -3.936,-1.008 -2.4,0 -4.08,0.96 -1.632,0.912 -2.496,2.4 -0.864,1.488 -0.96,3.168 z"
         style="font-style:normal;font-variant:normal;font-weight:bold;font-stretch:normal;font-size:96px;line-height:2;font-family:'League Spartan';-inkscape-font-specification:'League Spartan Bold'"
         id="path3730" />
      <path
         d="m 378.18472,261.81528 q 2.736,0 4.512,-0.912 1.776,-0.96 2.4,-1.536 l 6.672,9.888 q -0.768,0.624 -2.64,1.632 -1.872,0.96 -4.704,1.68 -2.784,0.72 -6.384,0.72 -6.768,0 -11.904,-2.544 -5.136,-2.592 -8.016,-7.296 -2.832,-4.704 -2.832,-11.04 0,-6.384 2.832,-11.04 2.88,-4.656 8.016,-7.2 5.136,-2.592 11.904,-2.592 3.552,0 6.336,0.768 2.832,0.72 4.752,1.68 1.92,0.912 2.688,1.584 l -6.816,9.984 q -0.336,-0.336 -1.248,-0.96 -0.864,-0.624 -2.256,-1.104 -1.392,-0.48 -3.312,-0.48 -2.352,0 -4.416,1.2 -2.016,1.2 -3.264,3.312 -1.248,2.112 -1.248,4.848 0,2.736 1.248,4.896 1.248,2.112 3.264,3.312 2.064,1.2 4.416,1.2 z"
         style="font-style:normal;font-variant:normal;font-weight:bold;font-stretch:normal;font-size:96px;line-height:2;font-family:'League Spartan';-inkscape-font-specification:'League Spartan Bold'"
         id="path3732" />
      <path
         d="m 417.7846,273.28728 q -6.48,0 -11.52,-2.64 -4.992,-2.688 -7.872,-7.344 -2.832,-4.704 -2.832,-10.752 0,-6.048 2.832,-10.752 2.88,-4.752 7.872,-7.488 5.04,-2.736 11.52,-2.736 6.48,0 11.424,2.736 4.944,2.736 7.728,7.488 2.784,4.704 2.784,10.752 0,6.048 -2.784,10.752 -2.784,4.656 -7.728,7.344 -4.944,2.64 -11.424,2.64 z m 0,-12 q 2.496,0 4.32,-1.104 1.824,-1.104 2.832,-3.12 1.008,-2.016 1.008,-4.56 0,-2.592 -1.008,-4.608 -1.008,-2.016 -2.832,-3.168 -1.824,-1.152 -4.32,-1.152 -2.496,0 -4.368,1.152 -1.824,1.152 -2.88,3.168 -1.008,2.016 -1.008,4.608 0,2.544 1.008,4.56 1.056,2.016 2.88,3.12 1.872,1.104 4.368,1.104 z"
         style="font-style:normal;font-variant:normal;font-weight:bold;font-stretch:normal;font-size:96px;line-height:2;font-family:'League Spartan';-inkscape-font-specification:'League Spartan Bold'"
         id="path3734" />
    </g>
  </g>
</svg>
