<?xml version="1.0" encoding="UTF-8" standalone="no"?>
<!-- Created with Inkscape (http://www.inkscape.org/) -->

<svg
   xmlns:dc="http://purl.org/dc/elements/1.1/"
   xmlns:cc="http://creativecommons.org/ns#"
   xmlns:rdf="http://www.w3.org/1999/02/22-rdf-syntax-ns#"
   xmlns:svg="http://www.w3.org/2000/svg"
   xmlns="http://www.w3.org/2000/svg"
   xmlns:sodipodi="http://sodipodi.sourceforge.net/DTD/sodipodi-0.dtd"
   xmlns:inkscape="http://www.inkscape.org/namespaces/inkscape"
   width="31.765112mm"
   height="5.2262068mm"
   viewBox="0 0 31.765112 5.2262068"
   version="1.1"
   id="svg4873"
   sodipodi:docname="logowhite.svg"
   inkscape:version="0.92.5 (2060ec1f9f, 2020-04-08)">
  <defs
     id="defs4867" />
  <sodipodi:namedview
     id="base"
     pagecolor="#ffffff"
     bordercolor="#666666"
     borderopacity="1.0"
     inkscape:pageopacity="0.0"
     inkscape:pageshadow="2"
     inkscape:zoom="1.08"
     inkscape:cx="87.540385"
     inkscape:cy="-55.000157"
     inkscape:document-units="mm"
     inkscape:current-layer="layer1"
     showgrid="false"
     inkscape:window-width="1312"
     inkscape:window-height="704"
     inkscape:window-x="54"
     inkscape:window-y="27"
     inkscape:window-maximized="1"
     fit-margin-top="0"
     fit-margin-left="0"
     fit-margin-right="0"
     fit-margin-bottom="0" />
  <metadata
     id="metadata4870">
    <rdf:RDF>
      <cc:Work
         rdf:about="">
        <dc:format>image/svg+xml</dc:format>
        <dc:type
           rdf:resource="http://purl.org/dc/dcmitype/StillImage" />
        <dc:title></dc:title>
      </cc:Work>
    </rdf:RDF>
  </metadata>
  <g
     inkscape:label="Layer 1"
     inkscape:groupmode="layer"
     id="layer1"
     transform="translate(-10.940125,-5.1908042)">
    <g
       aria-label="Triveneco"
       transform="matrix(0.19242293,0,0,0.19242293,7.5876215,1.9217006)"
       style="font-style:normal;font-weight:normal;font-size:40px;line-height:1.25;font-family:sans-serif;letter-spacing:0px;word-spacing:0px;fill:#000000;fill-opacity:1;stroke:none"
       id="flowRoot4875">
      <path
         d="m 23.722578,22.509158 h -6.3 v -5.24 h 18.56 v 5.24 h -6.28 v 21.16 h -5.98 z"
         style="fill:#ffffff;fill-opacity:1"
         id="path5501"
         inkscape:connector-curvature="0" />
      <path
         d="m 43.502451,43.669158 h -6.08 v -16.42 h 6.08 v 2.54 h -0.1 q 0.16,-0.46 0.78,-1.16 0.62,-0.72 1.74,-1.28 1.12,-0.58 2.74,-0.58 1.14,0 2.1,0.36 0.96,0.34 1.4,0.66 l -2.36,4.94 q -0.28,-0.34 -1,-0.7 -0.7,-0.38 -1.76,-0.38 -1.22,0 -2.02,0.62 -0.78,0.62 -1.16,1.5 -0.36,0.88 -0.36,1.66 z"
         style="fill:#ffffff;fill-opacity:1"
         id="path5503"
         inkscape:connector-curvature="0" />
      <path
         d="m 54.002437,43.669158 v -16.42 h 6.08 v 16.42 z m 3.12,-19.8 q -1.44,0 -2.44,-1 -1,-1.02 -1,-2.42 0,-1.4 1,-2.42 1.02,-1.04 2.44,-1.04 0.94,0 1.72,0.48 0.78,0.46 1.26,1.24 0.48,0.78 0.48,1.74 0,1.4 -1.02,2.42 -1.02,1 -2.44,1 z"
         style="fill:#ffffff;fill-opacity:1"
         id="path5505"
         inkscape:connector-curvature="0" />
      <path
         d="m 62.802402,27.249158 h 6.5 l 3.96,10.9 3.98,-10.9 h 6.46 l -6.88,16.42 h -7.12 z"
         style="fill:#ffae4b;fill-opacity:1"
         id="path5507"
         inkscape:connector-curvature="0" />
      <path
         d="m 91.002361,36.749158 q 0.06,0.88 0.56,1.56 0.5,0.68 1.38,1.08 0.9,0.38 2.12,0.38 1.16,0 2.08,-0.24 0.94,-0.24 1.62,-0.6 0.7,-0.36 1.08,-0.74 l 2.359999,3.76 q -0.5,0.54 -1.42,1.06 -0.899999,0.5 -2.379999,0.82 -1.48,0.32 -3.74,0.32 -2.72,0 -4.84,-1.02 -2.12,-1.02 -3.34,-3 -1.22,-1.98 -1.22,-4.84 0,-2.4 1.04,-4.32 1.06,-1.94 3.06,-3.06 2,-1.14 4.82,-1.14 2.68,0 4.64,0.98 1.979999,0.98 3.039999,2.92 1.08,1.92 1.08,4.8 0,0.16 -0.02,0.64 0,0.48 -0.04,0.64 z m 6.22,-3.18 q -0.02,-0.64 -0.34,-1.26 -0.32,-0.64 -0.96,-1.04 -0.64,-0.42 -1.64,-0.42 -1,0 -1.7,0.4 -0.68,0.38 -1.04,1 -0.36,0.62 -0.4,1.32 z"
         style="fill:#233dff;fill-opacity:1"
         id="path5509"
         inkscape:connector-curvature="0" />
      <path
         d="m 117.38233,26.769158 q 1.72,0 3.36,0.7 1.64,0.7 2.7,2.22 1.06,1.5 1.06,3.96 v 10.02 h -6.1 v -9.02 q 0,-1.76 -0.84,-2.64 -0.84,-0.9 -2.2,-0.9 -0.9,0 -1.7,0.48 -0.78,0.46 -1.28,1.32 -0.48,0.84 -0.48,1.94 v 8.82 h -6.08 v -16.42 h 6.08 v 2.42 q 0.24,-0.66 1,-1.32 0.78,-0.68 1.94,-1.12 1.18,-0.46 2.54,-0.46 z"
         style="fill:#d32f23;fill-opacity:1"
         id="path5511"
         inkscape:connector-curvature="0" />
      <path
         d="m 132.88232,36.749158 q 0.06,0.88 0.56,1.56 0.5,0.68 1.38,1.08 0.9,0.38 2.12,0.38 1.16,0 2.08,-0.24 0.94,-0.24 1.62,-0.6 0.7,-0.36 1.08,-0.74 l 2.36,3.76 q -0.5,0.54 -1.42,1.06 -0.9,0.5 -2.38,0.82 -1.48,0.32 -3.74,0.32 -2.72,0 -4.84,-1.02 -2.12,-1.02 -3.34,-3 -1.22,-1.98 -1.22,-4.84 0,-2.4 1.04,-4.32 1.06,-1.94 3.06,-3.06 2,-1.14 4.82,-1.14 2.68,0 4.64,0.98 1.98,0.98 3.04,2.92 1.08,1.92 1.08,4.8 0,0.16 -0.02,0.64 0,0.48 -0.04,0.64 z m 6.22,-3.18 q -0.02,-0.64 -0.34,-1.26 -0.32,-0.64 -0.96,-1.04 -0.64,-0.42 -1.64,-0.42 -1,0 -1.7,0.4 -0.68,0.38 -1.04,1 -0.36,0.62 -0.4,1.32 z"
         style="fill:#ffffff;fill-opacity:1"
         id="path5513"
         inkscape:connector-curvature="0" />
      <path
         d="m 156.86229,39.369158 q 1.14,0 1.88,-0.38 0.74,-0.4 1,-0.64 l 2.78,4.12 q -0.32,0.26 -1.1,0.68 -0.78,0.4 -1.96,0.7 -1.16,0.3 -2.66,0.3 -2.82,0 -4.96,-1.06 -2.14,-1.08 -3.34,-3.04 -1.18,-1.96 -1.18,-4.6 0,-2.66 1.18,-4.6 1.2,-1.94 3.34,-3 2.14,-1.08 4.96,-1.08 1.48,0 2.64,0.32 1.18,0.3 1.98,0.7 0.8,0.38 1.12,0.66 l -2.84,4.16 q -0.14,-0.14 -0.52,-0.4 -0.36,-0.26 -0.94,-0.46 -0.58,-0.2 -1.38,-0.2 -0.98,0 -1.84,0.5 -0.84,0.5 -1.36,1.38 -0.52,0.88 -0.52,2.02 0,1.14 0.52,2.04 0.52,0.88 1.36,1.38 0.86,0.5 1.84,0.5 z"
         style="fill:#ffffff;fill-opacity:1"
         id="path5515"
         inkscape:connector-curvature="0" />
      <path
         d="m 173.36224,44.149158 q -2.7,0 -4.8,-1.1 -2.08,-1.12 -3.28,-3.06 -1.18,-1.96 -1.18,-4.48 0,-2.52 1.18,-4.48 1.2,-1.98 3.28,-3.12 2.1,-1.14 4.8,-1.14 2.7,0 4.76,1.14 2.06,1.14 3.22,3.12 1.16,1.96 1.16,4.48 0,2.52 -1.16,4.48 -1.16,1.94 -3.22,3.06 -2.06,1.1 -4.76,1.1 z m 0,-5 q 1.04,0 1.8,-0.46 0.76,-0.46 1.18,-1.3 0.42,-0.84 0.42,-1.9 0,-1.08 -0.42,-1.92 -0.42,-0.84 -1.18,-1.32 -0.76,-0.48 -1.8,-0.48 -1.04,0 -1.82,0.48 -0.76,0.48 -1.2,1.32 -0.42,0.84 -0.42,1.92 0,1.06 0.42,1.9 0.44,0.84 1.2,1.3 0.78,0.46 1.82,0.46 z"
         style="fill:#ffffff;fill-opacity:1"
         id="path5517"
         inkscape:connector-curvature="0" />
    </g>
  </g>
</svg>
